<svg id="mermaid-svg" width="100%" xmlns="http://www.w3.org/2000/svg" style="max-width: 213.314453125px;" viewBox="0 0 213.314453125 642" role="graphics-document document" aria-roledescription="er" xmlns:xlink="http://www.w3.org/1999/xlink"><style>#mermaid-svg{font-family:"trebuchet ms",verdana,arial,sans-serif;font-size:16px;fill:#333;}#mermaid-svg .error-icon{fill:#552222;}#mermaid-svg .error-text{fill:#552222;stroke:#552222;}#mermaid-svg .edge-thickness-normal{stroke-width:2px;}#mermaid-svg .edge-thickness-thick{stroke-width:3.5px;}#mermaid-svg .edge-pattern-solid{stroke-dasharray:0;}#mermaid-svg .edge-pattern-dashed{stroke-dasharray:3;}#mermaid-svg .edge-pattern-dotted{stroke-dasharray:2;}#mermaid-svg .marker{fill:#333333;stroke:#333333;}#mermaid-svg .marker.cross{stroke:#333333;}#mermaid-svg svg{font-family:"trebuchet ms",verdana,arial,sans-serif;font-size:16px;}#mermaid-svg .entityBox{fill:#ECECFF;stroke:#9370DB;}#mermaid-svg .attributeBoxOdd{fill:#ffffff;stroke:#9370DB;}#mermaid-svg .attributeBoxEven{fill:#f2f2f2;stroke:#9370DB;}#mermaid-svg .relationshipLabelBox{fill:hsl(80, 100%, 96.2745098039%);opacity:0.7;background-color:hsl(80, 100%, 96.2745098039%);}#mermaid-svg .relationshipLabelBox rect{opacity:0.5;}#mermaid-svg .relationshipLine{stroke:#333333;}#mermaid-svg .entityTitleText{text-anchor:middle;font-size:18px;fill:#333;}#mermaid-svg #MD_PARENT_START{fill:#f5f5f5!important;stroke:#333333!important;stroke-width:1;}#mermaid-svg #MD_PARENT_END{fill:#f5f5f5!important;stroke:#333333!important;stroke-width:1;}#mermaid-svg :root{--mermaid-font-family:"trebuchet ms",verdana,arial,sans-serif;}</style><g></g><defs><marker id="MD_PARENT_START" refX="0" refY="7" markerWidth="190" markerHeight="240" orient="auto"><path d="M 18,7 L9,13 L1,7 L9,1 Z"></path></marker></defs><defs><marker id="MD_PARENT_END" refX="19" refY="7" markerWidth="20" markerHeight="28" orient="auto"><path d="M 18,7 L9,13 L1,7 L9,1 Z"></path></marker></defs><defs><marker id="ONLY_ONE_START" refX="0" refY="9" markerWidth="18" markerHeight="18" orient="auto"><path stroke="gray" fill="none" d="M9,0 L9,18 M15,0 L15,18"></path></marker></defs><defs><marker id="ONLY_ONE_END" refX="18" refY="9" markerWidth="18" markerHeight="18" orient="auto"><path stroke="gray" fill="none" d="M3,0 L3,18 M9,0 L9,18"></path></marker></defs><defs><marker id="ZERO_OR_ONE_START" refX="0" refY="9" markerWidth="30" markerHeight="18" orient="auto"><circle stroke="gray" fill="white" cx="21" cy="9" r="6"></circle><path stroke="gray" fill="none" d="M9,0 L9,18"></path></marker></defs><defs><marker id="ZERO_OR_ONE_END" refX="30" refY="9" markerWidth="30" markerHeight="18" orient="auto"><circle stroke="gray" fill="white" cx="9" cy="9" r="6"></circle><path stroke="gray" fill="none" d="M21,0 L21,18"></path></marker></defs><defs><marker id="ONE_OR_MORE_START" refX="18" refY="18" markerWidth="45" markerHeight="36" orient="auto"><path stroke="gray" fill="none" d="M0,18 Q 18,0 36,18 Q 18,36 0,18 M42,9 L42,27"></path></marker></defs><defs><marker id="ONE_OR_MORE_END" refX="27" refY="18" markerWidth="45" markerHeight="36" orient="auto"><path stroke="gray" fill="none" d="M3,9 L3,27 M9,18 Q27,0 45,18 Q27,36 9,18"></path></marker></defs><defs><marker id="ZERO_OR_MORE_START" refX="18" refY="18" markerWidth="57" markerHeight="36" orient="auto"><circle stroke="gray" fill="white" cx="48" cy="18" r="6"></circle><path stroke="gray" fill="none" d="M0,18 Q18,0 36,18 Q18,36 0,18"></path></marker></defs><defs><marker id="ZERO_OR_MORE_END" refX="39" refY="18" markerWidth="57" markerHeight="36" orient="auto"><circle stroke="gray" fill="white" cx="9" cy="18" r="6"></circle><path stroke="gray" fill="none" d="M21,18 Q39,0 57,18 Q39,36 21,18"></path></marker></defs><path class="er relationshipLine" d="M106.657,176L106.657,184.333C106.657,192.667,106.657,209.333,106.657,226C106.657,242.667,106.657,259.333,106.657,267.667L106.657,276" marker-end="url(#ZERO_OR_MORE_END)" marker-start="url(#ONLY_ONE_START)" style="stroke: gray; fill: none;"></path><path class="er relationshipLine" d="M106.657,410L106.657,418.333C106.657,426.667,106.657,443.333,106.657,460C106.657,476.667,106.657,493.333,106.657,501.667L106.657,510" marker-end="url(#ZERO_OR_MORE_END)" marker-start="url(#ONLY_ONE_START)" style="stroke: gray; fill: none;"></path><g id="entity-GASTO-f090f639-522c-565f-9f9e-5bafe7d4ae44" transform="translate(32.904205322265625,20 )"><rect class="er entityBox" x="0" y="0" width="147.50604248046875" height="156"></rect><text class="er entityLabel" id="text-entity-GASTO-f090f639-522c-565f-9f9e-5bafe7d4ae44" x="0" y="0" transform="translate(73.75302124023438,12)" style="dominant-baseline: middle; text-anchor: middle; font-size: 12px;">GASTO</text><rect class="er attributeBoxOdd" x="0" y="24" width="46.09375" height="22"></rect><text class="er entityLabel" id="text-entity-GASTO-f090f639-522c-565f-9f9e-5bafe7d4ae44-attr-1-type" x="0" y="0" transform="translate(5,35)" style="dominant-baseline: middle; font-size: 10.2px;">int</text><rect class="er attributeBoxOdd" x="46.09375" y="24" width="79.7315673828125" height="22"></rect><text class="er entityLabel" id="text-entity-GASTO-f090f639-522c-565f-9f9e-5bafe7d4ae44-attr-1-name" x="0" y="0" transform="translate(51.09375,35)" style="dominant-baseline: middle; font-size: 10.2px;">id</text><rect class="er attributeBoxOdd" x="125.8253173828125" y="24" width="21.68072509765625" height="22"></rect><text class="er entityLabel" id="text-entity-GASTO-f090f639-522c-565f-9f9e-5bafe7d4ae44-attr-1-key" x="0" y="0" transform="translate(130.8253173828125,35)" style="dominant-baseline: middle; font-size: 10.2px;">PK</text><rect class="er attributeBoxEven" x="0" y="46" width="46.09375" height="22"></rect><text class="er entityLabel" id="text-entity-GASTO-f090f639-522c-565f-9f9e-5bafe7d4ae44-attr-2-type" x="0" y="0" transform="translate(5,57)" style="dominant-baseline: middle; font-size: 10.2px;">string</text><rect class="er attributeBoxEven" x="46.09375" y="46" width="79.7315673828125" height="22"></rect><text class="er entityLabel" id="text-entity-GASTO-f090f639-522c-565f-9f9e-5bafe7d4ae44-attr-2-name" x="0" y="0" transform="translate(51.09375,57)" style="dominant-baseline: middle; font-size: 10.2px;">descripcion</text><rect class="er attributeBoxEven" x="125.8253173828125" y="46" width="21.68072509765625" height="22"></rect><text class="er entityLabel" id="text-entity-GASTO-f090f639-522c-565f-9f9e-5bafe7d4ae44-attr-2-key" x="0" y="0" transform="translate(130.8253173828125,57)" style="dominant-baseline: middle; font-size: 10.2px;"></text><rect class="er attributeBoxOdd" x="0" y="68" width="46.09375" height="22"></rect><text class="er entityLabel" id="text-entity-GASTO-f090f639-522c-565f-9f9e-5bafe7d4ae44-attr-3-type" x="0" y="0" transform="translate(5,79)" style="dominant-baseline: middle; font-size: 10.2px;">float</text><rect class="er attributeBoxOdd" x="46.09375" y="68" width="79.7315673828125" height="22"></rect><text class="er entityLabel" id="text-entity-GASTO-f090f639-522c-565f-9f9e-5bafe7d4ae44-attr-3-name" x="0" y="0" transform="translate(51.09375,79)" style="dominant-baseline: middle; font-size: 10.2px;">monto</text><rect class="er attributeBoxOdd" x="125.8253173828125" y="68" width="21.68072509765625" height="22"></rect><text class="er entityLabel" id="text-entity-GASTO-f090f639-522c-565f-9f9e-5bafe7d4ae44-attr-3-key" x="0" y="0" transform="translate(130.8253173828125,79)" style="dominant-baseline: middle; font-size: 10.2px;"></text><rect class="er attributeBoxEven" x="0" y="90" width="46.09375" height="22"></rect><text class="er entityLabel" id="text-entity-GASTO-f090f639-522c-565f-9f9e-5bafe7d4ae44-attr-4-type" x="0" y="0" transform="translate(5,101)" style="dominant-baseline: middle; font-size: 10.2px;">string</text><rect class="er attributeBoxEven" x="46.09375" y="90" width="79.7315673828125" height="22"></rect><text class="er entityLabel" id="text-entity-GASTO-f090f639-522c-565f-9f9e-5bafe7d4ae44-attr-4-name" x="0" y="0" transform="translate(51.09375,101)" style="dominant-baseline: middle; font-size: 10.2px;">estado</text><rect class="er attributeBoxEven" x="125.8253173828125" y="90" width="21.68072509765625" height="22"></rect><text class="er entityLabel" id="text-entity-GASTO-f090f639-522c-565f-9f9e-5bafe7d4ae44-attr-4-key" x="0" y="0" transform="translate(130.8253173828125,101)" style="dominant-baseline: middle; font-size: 10.2px;"></text><rect class="er attributeBoxOdd" x="0" y="112" width="46.09375" height="22"></rect><text class="er entityLabel" id="text-entity-GASTO-f090f639-522c-565f-9f9e-5bafe7d4ae44-attr-5-type" x="0" y="0" transform="translate(5,123)" style="dominant-baseline: middle; font-size: 10.2px;">int</text><rect class="er attributeBoxOdd" x="46.09375" y="112" width="79.7315673828125" height="22"></rect><text class="er entityLabel" id="text-entity-GASTO-f090f639-522c-565f-9f9e-5bafe7d4ae44-attr-5-name" x="0" y="0" transform="translate(51.09375,123)" style="dominant-baseline: middle; font-size: 10.2px;">pago_id</text><rect class="er attributeBoxOdd" x="125.8253173828125" y="112" width="21.68072509765625" height="22"></rect><text class="er entityLabel" id="text-entity-GASTO-f090f639-522c-565f-9f9e-5bafe7d4ae44-attr-5-key" x="0" y="0" transform="translate(130.8253173828125,123)" style="dominant-baseline: middle; font-size: 10.2px;">FK</text><rect class="er attributeBoxEven" x="0" y="134" width="46.09375" height="22"></rect><text class="er entityLabel" id="text-entity-GASTO-f090f639-522c-565f-9f9e-5bafe7d4ae44-attr-6-type" x="0" y="0" transform="translate(5,145)" style="dominant-baseline: middle; font-size: 10.2px;">boolean</text><rect class="er attributeBoxEven" x="46.09375" y="134" width="79.7315673828125" height="22"></rect><text class="er entityLabel" id="text-entity-GASTO-f090f639-522c-565f-9f9e-5bafe7d4ae44-attr-6-name" x="0" y="0" transform="translate(51.09375,145)" style="dominant-baseline: middle; font-size: 10.2px;">pago_generado</text><rect class="er attributeBoxEven" x="125.8253173828125" y="134" width="21.68072509765625" height="22"></rect><text class="er entityLabel" id="text-entity-GASTO-f090f639-522c-565f-9f9e-5bafe7d4ae44-attr-6-key" x="0" y="0" transform="translate(130.8253173828125,145)" style="dominant-baseline: middle; font-size: 10.2px;"></text></g><g id="entity-PAGO-da2d6884-3140-529d-bd9a-64d5605f86df" transform="translate(20,276 )"><rect class="er entityBox" x="0" y="0" width="173.314453125" height="134"></rect><text class="er entityLabel" id="text-entity-PAGO-da2d6884-3140-529d-bd9a-64d5605f86df" x="0" y="0" transform="translate(86.6572265625,12)" style="dominant-baseline: middle; text-anchor: middle; font-size: 12px;">PAGO</text><rect class="er attributeBoxOdd" x="0" y="24" width="52.02435302734375" height="22"></rect><text class="er entityLabel" id="text-entity-PAGO-da2d6884-3140-529d-bd9a-64d5605f86df-attr-1-type" x="0" y="0" transform="translate(5,35)" style="dominant-baseline: middle; font-size: 10.2px;">int</text><rect class="er attributeBoxOdd" x="52.02435302734375" y="24" width="99.609375" height="22"></rect><text class="er entityLabel" id="text-entity-PAGO-da2d6884-3140-529d-bd9a-64d5605f86df-attr-1-name" x="0" y="0" transform="translate(57.02435302734375,35)" style="dominant-baseline: middle; font-size: 10.2px;">id</text><rect class="er attributeBoxOdd" x="151.63372802734375" y="24" width="21.68072509765625" height="22"></rect><text class="er entityLabel" id="text-entity-PAGO-da2d6884-3140-529d-bd9a-64d5605f86df-attr-1-key" x="0" y="0" transform="translate(156.63372802734375,35)" style="dominant-baseline: middle; font-size: 10.2px;">PK</text><rect class="er attributeBoxEven" x="0" y="46" width="52.02435302734375" height="22"></rect><text class="er entityLabel" id="text-entity-PAGO-da2d6884-3140-529d-bd9a-64d5605f86df-attr-2-type" x="0" y="0" transform="translate(5,57)" style="dominant-baseline: middle; font-size: 10.2px;">float</text><rect class="er attributeBoxEven" x="52.02435302734375" y="46" width="99.609375" height="22"></rect><text class="er entityLabel" id="text-entity-PAGO-da2d6884-3140-529d-bd9a-64d5605f86df-attr-2-name" x="0" y="0" transform="translate(57.02435302734375,57)" style="dominant-baseline: middle; font-size: 10.2px;">monto</text><rect class="er attributeBoxEven" x="151.63372802734375" y="46" width="21.68072509765625" height="22"></rect><text class="er entityLabel" id="text-entity-PAGO-da2d6884-3140-529d-bd9a-64d5605f86df-attr-2-key" x="0" y="0" transform="translate(156.63372802734375,57)" style="dominant-baseline: middle; font-size: 10.2px;"></text><rect class="er attributeBoxOdd" x="0" y="68" width="52.02435302734375" height="22"></rect><text class="er entityLabel" id="text-entity-PAGO-da2d6884-3140-529d-bd9a-64d5605f86df-attr-3-type" x="0" y="0" transform="translate(5,79)" style="dominant-baseline: middle; font-size: 10.2px;">datetime</text><rect class="er attributeBoxOdd" x="52.02435302734375" y="68" width="99.609375" height="22"></rect><text class="er entityLabel" id="text-entity-PAGO-da2d6884-3140-529d-bd9a-64d5605f86df-attr-3-name" x="0" y="0" transform="translate(57.02435302734375,79)" style="dominant-baseline: middle; font-size: 10.2px;">fecha</text><rect class="er attributeBoxOdd" x="151.63372802734375" y="68" width="21.68072509765625" height="22"></rect><text class="er entityLabel" id="text-entity-PAGO-da2d6884-3140-529d-bd9a-64d5605f86df-attr-3-key" x="0" y="0" transform="translate(156.63372802734375,79)" style="dominant-baseline: middle; font-size: 10.2px;"></text><rect class="er attributeBoxEven" x="0" y="90" width="52.02435302734375" height="22"></rect><text class="er entityLabel" id="text-entity-PAGO-da2d6884-3140-529d-bd9a-64d5605f86df-attr-4-type" x="0" y="0" transform="translate(5,101)" style="dominant-baseline: middle; font-size: 10.2px;">string</text><rect class="er attributeBoxEven" x="52.02435302734375" y="90" width="99.609375" height="22"></rect><text class="er entityLabel" id="text-entity-PAGO-da2d6884-3140-529d-bd9a-64d5605f86df-attr-4-name" x="0" y="0" transform="translate(57.02435302734375,101)" style="dominant-baseline: middle; font-size: 10.2px;">estado</text><rect class="er attributeBoxEven" x="151.63372802734375" y="90" width="21.68072509765625" height="22"></rect><text class="er entityLabel" id="text-entity-PAGO-da2d6884-3140-529d-bd9a-64d5605f86df-attr-4-key" x="0" y="0" transform="translate(156.63372802734375,101)" style="dominant-baseline: middle; font-size: 10.2px;"></text><rect class="er attributeBoxOdd" x="0" y="112" width="52.02435302734375" height="22"></rect><text class="er entityLabel" id="text-entity-PAGO-da2d6884-3140-529d-bd9a-64d5605f86df-attr-5-type" x="0" y="0" transform="translate(5,123)" style="dominant-baseline: middle; font-size: 10.2px;">int</text><rect class="er attributeBoxOdd" x="52.02435302734375" y="112" width="99.609375" height="22"></rect><text class="er entityLabel" id="text-entity-PAGO-da2d6884-3140-529d-bd9a-64d5605f86df-attr-5-name" x="0" y="0" transform="translate(57.02435302734375,123)" style="dominant-baseline: middle; font-size: 10.2px;">cuenta_bancaria_id</text><rect class="er attributeBoxOdd" x="151.63372802734375" y="112" width="21.68072509765625" height="22"></rect><text class="er entityLabel" id="text-entity-PAGO-da2d6884-3140-529d-bd9a-64d5605f86df-attr-5-key" x="0" y="0" transform="translate(156.63372802734375,123)" style="dominant-baseline: middle; font-size: 10.2px;">FK</text></g><g id="entity-CUENTABANCARIA-6b26557a-404f-5282-9148-1b08d84760eb" transform="translate(37.434051513671875,510 )"><rect class="er entityBox" x="0" y="0" width="138.44635009765625" height="112"></rect><text class="er entityLabel" id="text-entity-CUENTABANCARIA-6b26557a-404f-5282-9148-1b08d84760eb" x="0" y="0" transform="translate(69.22317504882812,12)" style="dominant-baseline: middle; text-anchor: middle; font-size: 12px;">CUENTABANCARIA</text><rect class="er attributeBoxOdd" x="0" y="24" width="35.71875" height="22"></rect><text class="er entityLabel" id="text-entity-CUENTABANCARIA-6b26557a-404f-5282-9148-1b08d84760eb-attr-1-type" x="0" y="0" transform="translate(5,35)" style="dominant-baseline: middle; font-size: 10.2px;">int</text><rect class="er attributeBoxOdd" x="35.71875" y="24" width="81.046875" height="22"></rect><text class="er entityLabel" id="text-entity-CUENTABANCARIA-6b26557a-404f-5282-9148-1b08d84760eb-attr-1-name" x="0" y="0" transform="translate(40.71875,35)" style="dominant-baseline: middle; font-size: 10.2px;">id</text><rect class="er attributeBoxOdd" x="116.765625" y="24" width="21.68072509765625" height="22"></rect><text class="er entityLabel" id="text-entity-CUENTABANCARIA-6b26557a-404f-5282-9148-1b08d84760eb-attr-1-key" x="0" y="0" transform="translate(121.765625,35)" style="dominant-baseline: middle; font-size: 10.2px;">PK</text><rect class="er attributeBoxEven" x="0" y="46" width="35.71875" height="22"></rect><text class="er entityLabel" id="text-entity-CUENTABANCARIA-6b26557a-404f-5282-9148-1b08d84760eb-attr-2-type" x="0" y="0" transform="translate(5,57)" style="dominant-baseline: middle; font-size: 10.2px;">string</text><rect class="er attributeBoxEven" x="35.71875" y="46" width="81.046875" height="22"></rect><text class="er entityLabel" id="text-entity-CUENTABANCARIA-6b26557a-404f-5282-9148-1b08d84760eb-attr-2-name" x="0" y="0" transform="translate(40.71875,57)" style="dominant-baseline: middle; font-size: 10.2px;">nombre_banco</text><rect class="er attributeBoxEven" x="116.765625" y="46" width="21.68072509765625" height="22"></rect><text class="er entityLabel" id="text-entity-CUENTABANCARIA-6b26557a-404f-5282-9148-1b08d84760eb-attr-2-key" x="0" y="0" transform="translate(121.765625,57)" style="dominant-baseline: middle; font-size: 10.2px;"></text><rect class="er attributeBoxOdd" x="0" y="68" width="35.71875" height="22"></rect><text class="er entityLabel" id="text-entity-CUENTABANCARIA-6b26557a-404f-5282-9148-1b08d84760eb-attr-3-type" x="0" y="0" transform="translate(5,79)" style="dominant-baseline: middle; font-size: 10.2px;">string</text><rect class="er attributeBoxOdd" x="35.71875" y="68" width="81.046875" height="22"></rect><text class="er entityLabel" id="text-entity-CUENTABANCARIA-6b26557a-404f-5282-9148-1b08d84760eb-attr-3-name" x="0" y="0" transform="translate(40.71875,79)" style="dominant-baseline: middle; font-size: 10.2px;">numero_cuenta</text><rect class="er attributeBoxOdd" x="116.765625" y="68" width="21.68072509765625" height="22"></rect><text class="er entityLabel" id="text-entity-CUENTABANCARIA-6b26557a-404f-5282-9148-1b08d84760eb-attr-3-key" x="0" y="0" transform="translate(121.765625,79)" style="dominant-baseline: middle; font-size: 10.2px;"></text><rect class="er attributeBoxEven" x="0" y="90" width="35.71875" height="22"></rect><text class="er entityLabel" id="text-entity-CUENTABANCARIA-6b26557a-404f-5282-9148-1b08d84760eb-attr-4-type" x="0" y="0" transform="translate(5,101)" style="dominant-baseline: middle; font-size: 10.2px;">float</text><rect class="er attributeBoxEven" x="35.71875" y="90" width="81.046875" height="22"></rect><text class="er entityLabel" id="text-entity-CUENTABANCARIA-6b26557a-404f-5282-9148-1b08d84760eb-attr-4-name" x="0" y="0" transform="translate(40.71875,101)" style="dominant-baseline: middle; font-size: 10.2px;">saldo</text><rect class="er attributeBoxEven" x="116.765625" y="90" width="21.68072509765625" height="22"></rect><text class="er entityLabel" id="text-entity-CUENTABANCARIA-6b26557a-404f-5282-9148-1b08d84760eb-attr-4-key" x="0" y="0" transform="translate(121.765625,101)" style="dominant-baseline: middle; font-size: 10.2px;"></text></g><rect class="er relationshipLabelBox" x="88.33668518066406" y="219" width="36.640625" height="14"></rect><text class="er relationshipLabel" id="rel1" x="106.65699768066406" y="226" style="text-anchor: middle; dominant-baseline: middle; font-size: 12px;">genera</text><rect class="er relationshipLabelBox" x="89.80543518066406" y="453" width="33.703125" height="14"></rect><text class="er relationshipLabel" id="rel2" x="106.65699768066406" y="460" style="text-anchor: middle; dominant-baseline: middle; font-size: 12px;">utiliza</text><style>@import url("https://cdnjs.cloudflare.com/ajax/libs/font-awesome/6.4.0/css/all.min.css");</style></svg>